<svg xmlns="http://www.w3.org/2000/svg" width="1024" height="1024" viewBox="0 0 1024 1024">
<g>
<path d="M 498.04 902.32 C487.03,900.01 475.94,891.85 469.24,881.12 C466.30,876.39 464.43,871.45 454.27,841.50 C449.60,827.75 442.50,806.83 438.48,795.00 C434.46,783.17 424.65,754.60 416.68,731.50 C408.71,708.40 399.39,681.40 395.98,671.50 C388.62,650.16 385.22,643.34 378.45,636.41 C370.67,628.43 369.90,628.12 300.00,604.00 C285.98,599.16 263.25,591.29 249.50,586.52 C235.75,581.74 212.35,573.65 197.50,568.54 C161.94,556.30 145.49,550.28 139.99,547.49 C127.63,541.24 116.17,529.21 111.93,518.06 C104.36,498.12 110.23,477.38 127.50,463.09 C139.35,453.28 138.70,453.53 288.34,404.03 C330.05,390.24 366.01,378.02 368.23,376.88 C374.55,373.66 381.40,366.60 384.85,359.76 C386.58,356.32 398.77,321.33 411.93,282.00 C448.35,173.17 459.60,140.54 463.46,132.51 C472.77,113.15 492.48,102.78 514.11,105.84 C532.90,108.49 546.88,120.13 553.76,138.82 C555.11,142.49 572.11,192.83 591.54,250.67 C610.97,308.52 627.63,357.34 628.57,359.17 C631.46,364.83 636.05,369.98 641.39,373.58 C646.67,377.15 663.73,382.97 789.00,424.00 C873.18,451.56 877.75,453.41 890.17,464.84 C907.43,480.74 911.43,504.29 900.21,524.00 C891.35,539.58 880.18,546.86 848.50,557.74 C841.35,560.19 819.30,567.74 799.50,574.52 C691.95,611.32 651.67,625.51 645.98,628.61 C639.57,632.10 632.84,638.77 629.14,645.31 C626.23,650.46 617.93,673.51 600.98,723.50 C589.01,758.79 554.96,857.43 551.01,868.23 C545.18,884.21 537.37,893.59 525.12,899.32 C519.44,901.99 517.22,902.46 509.50,902.63 C504.55,902.74 499.39,902.60 498.04,902.32 Z" fill="rgba(0,0,0,1)"/>
</g>
</svg>