<svg xmlns="http://www.w3.org/2000/svg" width="512" height="512" viewBox="0 0 512 512">
<g>
<path d="M 85.50 422.99 C74.33,420.72 64.19,415.13 55.80,406.60 C50.01,400.72 46.68,395.35 43.08,386.12 L 40.50 379.50 L 40.22 278.63 L 39.94 177.77 L 43.22 179.73 C45.03,180.81 91.28,210.48 146.00,245.67 C200.73,280.85 247.03,310.17 248.90,310.82 C253.22,312.32 258.75,312.33 263.10,310.83 C266.18,309.78 293.50,292.44 396.00,226.47 C414.98,214.26 439.73,198.35 451.00,191.11 L 471.50 177.95 L 471.77 275.23 C472.01,359.85 471.85,373.41 470.51,379.50 C466.08,399.60 453.67,413.47 433.05,421.37 L 427.50 423.50 L 258.50 423.65 C165.55,423.73 87.70,423.43 85.50,422.99 ZM 221.50 238.39 C180.47,211.68 142.93,187.34 87.50,151.49 C63.85,136.19 44.34,123.56 44.15,123.41 C43.96,123.26 45.31,120.33 47.14,116.89 C53.45,105.04 65.53,95.30 80.00,90.37 C85.29,88.57 92.00,88.50 256.00,88.50 C420.00,88.50 426.71,88.57 432.00,90.37 C446.47,95.30 458.55,105.04 464.86,116.89 C466.69,120.33 468.04,123.26 467.85,123.41 C467.66,123.56 440.05,141.46 406.50,163.19 C372.95,184.92 325.60,215.59 301.27,231.35 C276.94,247.11 256.46,259.97 255.77,259.93 C255.07,259.89 239.65,250.20 221.50,238.39 Z" fill="rgba(0,0,0,1)"/>
</g>
</svg>