<svg xmlns="http://www.w3.org/2000/svg" width="1254" height="836" viewBox="0 0 1254 836">
<g>
<path d="M 283.50 521.08 C280.75,520.06 269.27,514.73 258.00,509.24 C246.73,503.74 226.70,493.97 213.50,487.52 C200.30,481.08 187.83,475.57 185.79,475.28 C183.59,474.96 180.54,475.37 178.29,476.27 C173.87,478.04 173.00,478.44 129.03,498.71 C74.08,524.05 75.56,523.54 65.12,520.44 C55.04,517.45 48.06,508.42 48.02,498.29 C47.99,490.08 51.17,483.02 78.86,429.74 C89.37,409.52 98.24,391.89 98.58,390.55 C99.04,388.70 95.05,379.79 81.68,352.81 C46.37,281.57 42.91,273.82 42.72,265.51 C42.42,252.62 55.77,240.87 68.96,242.42 C76.63,243.33 86.25,247.57 148.50,277.51 C172.23,288.93 177.14,291.00 180.44,291.00 C182.44,291.00 193.07,286.52 209.06,278.92 C223.05,272.27 246.34,261.21 260.80,254.34 C286.14,242.30 287.35,241.84 293.90,241.74 C309.05,241.52 320.05,252.59 318.75,266.76 C318.31,271.54 315.28,278.74 300.51,310.00 C290.77,330.62 278.73,355.60 273.76,365.50 C262.97,387.00 262.79,388.28 268.79,399.25 C278.07,416.21 296.13,450.42 307.53,472.66 C316.08,489.31 317.42,492.61 317.80,497.85 C318.34,505.33 315.74,511.35 309.80,516.44 C302.30,522.86 292.83,524.53 283.50,521.08 ZM 461.00 516.37 C459.62,516.18 454.67,515.52 450.00,514.90 C434.02,512.78 416.65,506.08 401.81,496.30 C389.15,487.96 376.06,471.36 370.50,456.58 C367.85,449.57 364.49,430.78 365.43,428.33 C365.85,427.22 371.97,427.02 399.12,427.24 L 432.30 427.50 L 434.01 433.50 C436.43,441.96 438.26,445.01 444.31,450.73 C450.53,456.62 454.03,458.57 462.94,461.14 C485.37,467.62 508.66,461.33 514.56,447.20 C518.21,438.48 514.63,430.49 504.39,424.49 C500.11,421.98 479.98,416.87 459.00,412.97 C408.67,403.61 385.72,391.23 373.19,366.70 C364.66,349.99 363.42,324.15 370.33,307.02 C377.89,288.32 394.92,271.95 414.98,264.10 C435.05,256.24 448.90,253.78 472.50,253.86 C489.17,253.91 500.53,255.24 511.63,258.43 C547.30,268.67 570.97,295.45 575.57,330.75 L 576.26 336.00 L 543.67 336.00 L 511.08 336.00 L 510.03 331.75 C507.35,320.83 500.54,312.57 490.16,307.65 C483.70,304.60 483.09,304.50 469.90,304.50 C456.34,304.50 456.29,304.51 449.44,308.00 C435.31,315.21 431.78,328.51 441.31,338.70 C445.59,343.28 454.89,346.63 472.84,350.05 C514.79,358.03 520.83,359.45 535.50,364.76 C570.06,377.27 589.41,407.27 585.02,441.50 C578.99,488.42 536.47,517.54 475.00,516.86 C468.67,516.79 462.38,516.57 461.00,516.37 ZM 1066.00 514.89 C1056.93,513.86 1051.05,512.04 1040.50,507.02 C1022.97,498.67 1009.33,483.08 1000.89,461.75 C997.73,453.75 994.30,435.74 993.52,422.96 C991.97,397.76 998.55,370.14 1010.11,353.34 C1019.30,339.99 1034.68,329.26 1051.00,324.84 C1062.13,321.82 1083.85,321.63 1094.00,324.47 C1104.08,327.29 1114.85,333.29 1121.28,339.67 L 1127.00 345.35 L 1127.00 297.67 L 1127.00 250.00 L 1161.00 250.00 L 1195.00 250.00 L 1195.00 381.00 L 1195.00 512.00 L 1165.50 512.00 L 1136.00 512.00 L 1136.00 498.91 L 1136.00 485.82 L 1132.13 490.66 C1126.98,497.09 1123.67,500.04 1116.61,504.51 C1108.42,509.70 1097.12,513.59 1086.50,514.89 C1076.60,516.10 1076.70,516.10 1066.00,514.89 ZM 1114.24 462.67 C1123.56,458.11 1129.27,450.39 1132.54,437.94 C1134.52,430.40 1134.06,410.94 1131.70,402.50 C1126.73,384.73 1114.47,373.68 1098.19,372.31 C1082.70,371.01 1069.62,379.55 1063.48,394.97 C1060.62,402.14 1060.50,403.09 1060.50,417.97 C1060.50,432.59 1060.67,433.96 1063.37,441.30 C1065.47,447.00 1067.60,450.59 1071.27,454.61 C1079.39,463.49 1086.11,466.07 1100.08,465.66 C1107.06,465.45 1109.70,464.89 1114.24,462.67 ZM 603.00 381.00 L 603.00 250.00 L 634.50 250.00 L 666.00 250.00 L 666.00 381.00 L 666.00 512.00 L 634.50 512.00 L 603.00 512.00 L 603.00 381.00 ZM 700.00 418.99 L 700.00 325.97 L 731.25 326.24 L 762.50 326.50 L 762.77 417.00 C762.93,466.77 762.80,508.51 762.51,509.75 L 761.96 512.00 L 730.98 512.00 L 700.00 512.00 L 700.00 418.99 ZM 794.00 419.00 L 794.00 326.00 L 828.50 326.00 L 863.00 326.00 L 863.04 337.75 L 863.08 349.50 L 867.29 344.98 C880.27,331.06 894.11,324.65 914.02,323.35 C931.74,322.19 948.09,327.25 958.51,337.10 C967.85,345.93 974.22,357.72 977.65,372.50 C979.35,379.86 979.50,385.78 979.50,446.00 L 979.50 511.50 L 947.50 511.50 L 915.50 511.50 L 915.00 451.50 L 914.50 391.50 L 911.69 386.73 C908.16,380.72 903.06,377.31 895.52,375.92 C884.57,373.89 876.15,376.61 869.31,384.38 C862.43,392.20 862.63,390.24 862.25,454.25 L 861.91 512.00 L 827.95 512.00 L 794.00 512.00 L 794.00 419.00 ZM 700.00 277.50 L 700.00 250.00 L 731.50 250.00 L 763.00 250.00 L 763.00 277.50 L 763.00 305.00 L 731.50 305.00 L 700.00 305.00 L 700.00 277.50 Z" fill="rgba(0,0,0,1)"/>
</g>
</svg>