<svg xmlns="http://www.w3.org/2000/svg" width="1024" height="1024" viewBox="0 0 1024 1024">
<g>
<path d="M 472.50 907.92 C399.79,903.47 339.60,894.58 279.93,879.46 C199.83,859.17 171.51,841.57 164.58,807.79 C160.48,787.78 164.88,739.16 174.11,702.56 C193.23,626.76 238.62,581.38 324.50,552.17 C343.87,545.58 372.91,539.00 382.61,539.00 C386.12,539.00 388.26,539.88 393.73,543.58 C413.47,556.94 443.76,567.65 476.00,572.66 C490.33,574.89 528.58,575.18 543.00,573.16 C577.95,568.29 607.96,557.82 630.43,542.68 L 636.37 538.68 L 646.06 539.81 C665.43,542.08 703.65,553.48 727.57,564.12 C788.29,591.11 823.84,627.19 843.22,681.50 C856.66,719.16 864.59,779.85 859.54,806.52 C853.77,837.05 831.12,853.72 770.58,871.98 C708.99,890.55 632.18,903.33 554.29,907.97 C534.80,909.14 491.96,909.10 472.50,907.92 ZM 491.00 493.36 C422.58,484.88 365.71,437.02 344.05,369.72 C338.60,352.77 336.94,342.22 336.31,320.50 C335.48,291.89 338.48,271.23 346.61,249.61 C361.87,208.97 393.61,173.73 432.51,154.20 C474.35,133.20 527.65,130.25 571.51,146.49 C629.04,167.79 671.99,217.51 684.59,277.39 C688.07,293.95 688.98,322.12 686.57,339.27 C679.49,389.87 653.55,433.03 612.50,462.55 C601.94,470.14 579.28,481.64 566.50,485.89 C548.85,491.76 539.55,493.16 516.00,493.49 C504.17,493.66 492.92,493.60 491.00,493.36 Z" fill="rgba(0,0,0,1)"/>
</g>
</svg>