<svg xmlns="http://www.w3.org/2000/svg" width="320" height="320" viewBox="0 0 320 320">
<g>
<path d="M 34.50 306.07 C26.35,304.05 20.02,298.93 15.86,291.00 L 13.50 286.50 L 13.50 160.00 C13.50,44.49 13.64,33.18 15.15,29.86 C17.58,24.51 23.41,18.52 28.78,15.85 L 33.50 13.50 L 109.75 13.22 C151.69,13.07 186.00,13.30 186.00,13.73 C186.00,14.16 177.34,23.17 166.75,33.75 L 147.50 52.98 L 100.50 53.24 L 53.50 53.50 L 53.50 160.00 L 53.50 266.50 L 160.00 266.50 L 266.50 266.50 L 266.76 219.50 L 267.02 172.50 L 286.25 153.25 C296.83,142.66 305.84,134.00 306.27,134.00 C306.70,134.00 306.93,168.31 306.78,210.25 L 306.50 286.50 L 303.84 291.50 C300.70,297.42 297.14,300.92 291.00,304.14 L 286.50 306.50 L 162.00 306.66 C93.53,306.74 36.15,306.48 34.50,306.07 ZM 80.00 213.20 L 80.00 186.39 L 83.31 183.19 L 86.61 179.99 L 95.39 185.22 C112.19,195.23 124.77,207.81 134.78,224.61 L 140.01 233.39 L 136.81 236.69 L 133.61 240.00 L 106.80 240.00 L 80.00 240.00 L 80.00 213.20 ZM 150.68 211.39 C140.54,196.01 124.25,179.78 109.28,170.15 C105.31,167.59 102.05,165.27 102.03,165.00 C102.01,164.72 128.50,137.99 160.90,105.60 L 219.79 46.71 L 226.22 50.30 C244.50,60.53 259.47,75.50 269.70,93.79 L 273.29 100.21 L 214.26 159.24 L 155.22 218.27 L 150.68 211.39 ZM 283.04 76.68 C275.69,65.67 254.94,44.99 243.72,37.48 L 234.94 31.60 L 244.18 22.32 L 253.43 13.03 L 258.96 13.61 C273.27,15.10 285.53,19.68 292.57,26.17 C299.51,32.57 304.82,45.96 306.39,61.04 L 306.97 66.57 L 297.73 75.72 L 288.50 84.87 L 283.04 76.68 Z" fill="rgba(0,0,0,1)"/>
</g>
</svg>