<svg xmlns="http://www.w3.org/2000/svg" width="1024" height="1024" viewBox="0 0 1024 1024">
<g>
<path d="M 496.85 903.15 C485.11,900.08 474.65,891.18 468.55,879.06 C465.80,873.61 460.73,859.10 435.96,786.00 C420.57,740.54 405.05,695.54 393.03,661.45 C388.49,648.58 380.60,638.85 370.64,633.82 C367.42,632.19 353.02,626.81 338.64,621.84 C324.26,616.88 304.17,609.89 294.00,606.31 C283.83,602.73 249.18,590.67 217.00,579.51 C149.35,556.06 148.20,555.62 139.03,549.52 C123.22,539.01 114.51,523.49 114.76,506.26 C115.03,487.74 127.39,471.15 148.50,461.01 C159.48,455.74 172.55,451.27 287.50,413.43 C330.40,399.32 367.68,386.66 370.34,385.32 C376.91,382.00 383.07,376.12 386.41,369.98 C387.94,367.18 392.02,356.48 395.49,346.20 C398.97,335.91 413.29,293.30 427.33,251.50 C460.55,152.60 462.91,146.09 468.60,137.76 C479.33,122.03 497.20,114.64 516.60,117.90 C530.92,120.32 543.90,129.74 550.79,142.73 C552.60,146.14 570.26,197.17 590.03,256.12 C609.80,315.07 626.90,365.22 628.03,367.57 C631.18,374.06 637.23,380.31 643.68,383.72 C646.88,385.41 673.12,394.52 702.00,403.96 C730.88,413.40 755.62,421.52 757.00,422.00 C758.38,422.49 780.29,429.67 805.69,437.97 C831.10,446.27 855.85,454.65 860.69,456.60 C871.54,460.97 884.54,469.49 889.97,475.78 C895.49,482.17 900.46,492.32 901.96,500.29 C904.61,514.31 898.97,530.11 887.08,541.98 C877.50,551.54 868.21,555.91 828.44,569.50 C790.93,582.32 740.22,599.82 712.50,609.51 C702.60,612.97 683.94,619.48 671.03,623.99 C658.13,628.49 645.69,633.27 643.39,634.62 C638.23,637.64 630.85,645.41 628.20,650.61 C626.03,654.87 612.30,693.42 598.16,735.00 C547.98,882.50 548.57,880.94 539.96,890.35 C528.07,903.36 513.84,907.58 496.85,903.15 ZM 782.38 386.09 C780.12,385.06 777.11,382.70 775.70,380.85 C772.72,376.95 772.49,376.33 754.47,323.50 C746.97,301.50 739.92,282.15 738.81,280.50 C737.70,278.85 735.72,276.69 734.40,275.71 C733.09,274.73 711.88,266.92 687.26,258.37 C634.77,240.13 637.38,241.15 632.62,236.97 C625.60,230.81 623.09,221.50 626.35,213.72 C628.09,209.55 634.98,203.37 640.53,200.99 C642.93,199.96 664.16,192.79 687.70,185.05 C711.24,177.32 731.94,170.11 733.70,169.04 C735.46,167.97 737.63,165.69 738.52,163.97 C739.40,162.26 746.88,140.75 755.14,116.18 C763.40,91.60 771.26,69.60 772.61,67.28 C774.07,64.74 776.85,62.00 779.55,60.42 C783.49,58.11 784.91,57.83 790.89,58.16 C796.50,58.48 798.38,59.06 801.45,61.39 C803.49,62.95 806.00,65.59 807.01,67.26 C808.02,68.92 815.90,91.36 824.52,117.12 C838.98,160.34 840.45,164.19 843.57,166.93 C846.29,169.31 855.86,172.84 892.47,184.93 C917.51,193.19 939.68,200.83 941.75,201.89 C959.07,210.82 959.21,231.71 942.00,240.48 C938.23,242.40 906.25,253.69 859.50,269.61 C854.00,271.48 848.03,273.91 846.24,275.00 C840.46,278.52 841.83,275.15 818.51,342.95 C812.18,361.34 805.91,378.05 804.57,380.07 C801.75,384.33 794.94,388.01 789.93,387.98 C788.05,387.97 784.65,387.11 782.38,386.09 Z" fill="rgba(0,0,0,1)"/>
</g>
</svg>