<svg xmlns="http://www.w3.org/2000/svg" width="100" height="100" viewBox="0 0 320 320">
<g>
<path d="M 283.50 521.08 C280.75,520.06 269.27,514.73 258.00,509.24 C246.73,503.74 226.70,493.97 213.50,487.52 C200.30,481.08 187.83,475.57 185.79,475.28 C183.59,474.96 180.54,475.37 178.29,476.27 C173.87,478.04 173.00,478.44 129.03,498.71 C74.08,524.05 75.56,523.54 65.12,520.44 C55.04,517.45 48.06,508.42 48.02,498.29 C47.99,490.08 51.17,483.02 78.86,429.74 C89.37,409.52 98.24,391.89 98.58,390.55 C99.04,388.70 95.05,379.79 81.68,352.81 C46.37,281.57 42.91,273.82 42.72,265.51 C42.42,252.62 55.77,240.87 68.96,242.42 C76.63,243.33 86.25,247.57 148.50,277.51 C172.23,288.93 177.14,291.00 180.44,291.00 C182.44,291.00 193.07,286.52 209.06,278.92 C223.05,272.27 246.34,261.21 260.80,254.34 C286.14,242.30 287.35,241.84 293.90,241.74 C309.05,241.52 320.05,252.59 318.75,266.76 C318.31,271.54 315.28,278.74 300.51,310.00 C290.77,330.62 278.73,355.60 273.76,365.50 C262.97,387.00 262.79,388.28 268.79,399.25 C278.07,416.21 296.13,450.42 307.53,472.66 C316.08,489.31 317.42,492.61 317.80,497.85 C318.34,505.33 315.74,511.35 309.80,516.44 C302.30,522.86 292.83,524.53 283.50,521.08 Z" fill="white" transform="translate(-40, -230) scale(0.42)"></path>
</g>
</svg>
